<?xml version="1.0" encoding="UTF-8"?>
<svg xmlns="http://www.w3.org/2000/svg" xmlns:xlink="http://www.w3.org/1999/xlink" width="375pt" height="374.999991pt" viewBox="0 0 375 374.999991" version="1.2">
<defs>
<clipPath id="clip1">
  <path d="M 115 114.1875 L 262.5 114.1875 L 262.5 261.1875 L 115 261.1875 Z M 115 114.1875 "/>
</clipPath>
</defs>
<g id="surface1">
<g clip-path="url(#clip1)" clip-rule="nonzero">
<path style=" stroke:none;fill-rule:nonzero;fill:rgb(6.269836%,5.879211%,5.099487%);fill-opacity:1;" d="M 188.890625 118.769531 C 226.765625 118.703125 257.519531 149.523438 257.582031 187.589844 C 257.609375 206.925781 249.570312 225.382812 235.402344 238.449219 C 236.597656 232.757812 236.699219 226.871094 235.699219 221.128906 C 234.894531 213.398438 231.660156 206.113281 226.453125 200.359375 C 223.996094 197.917969 221.011719 196.117188 217.710938 195.082031 C 214.59375 194.117188 211.191406 194.886719 208.800781 197.121094 C 197.621094 207.523438 180.371094 207.523438 169.191406 197.121094 C 166.800781 194.886719 163.398438 194.117188 160.28125 195.082031 C 156.996094 196.117188 153.996094 197.917969 151.554688 200.359375 C 146.332031 206.113281 143.097656 213.386719 142.28125 221.128906 C 141.292969 226.871094 141.410156 232.757812 142.589844 238.449219 C 114.707031 212.695312 112.875 169.09375 138.5 141.054688 C 151.460938 126.875 169.734375 118.796875 188.890625 118.769531 Z M 186.867188 114.214844 C 147.304688 115.375 115.851562 147.933594 115.851562 187.695312 C 115.71875 228.308594 148.359375 261.332031 188.75 261.464844 C 229.152344 261.59375 262.011719 228.789062 262.140625 188.179688 C 262.140625 188.023438 262.140625 187.863281 262.140625 187.695312 C 262.140625 147.097656 229.402344 114.175781 188.996094 114.175781 C 188.28125 114.175781 187.566406 114.1875 186.867188 114.214844 "/>
</g>
<path style=" stroke:none;fill-rule:nonzero;fill:rgb(6.269836%,5.879211%,5.099487%);fill-opacity:1;" d="M 213.582031 175.621094 C 213.582031 161.980469 202.582031 150.910156 188.996094 150.910156 C 175.410156 150.910156 164.410156 161.980469 164.410156 175.621094 C 164.410156 189.273438 175.410156 200.332031 188.996094 200.332031 C 202.582031 200.332031 213.582031 189.273438 213.582031 175.621094 "/>
</g>
</svg>
