<?xml version="1.0" encoding="UTF-8"?>
<svg xmlns="http://www.w3.org/2000/svg" xmlns:xlink="http://www.w3.org/1999/xlink" width="810pt" height="809.999993pt" viewBox="0 0 810 809.999993" version="1.2">
<defs>
<clipPath id="clip1">
  <path d="M 191 69.496094 L 666.859375 69.496094 L 666.859375 770 L 191 770 Z M 191 69.496094 "/>
</clipPath>
<clipPath id="clip2">
  <path d="M 120.859375 22.199219 L 643.601562 22.199219 L 643.601562 780.234375 L 120.859375 780.234375 Z M 120.859375 22.199219 "/>
</clipPath>
</defs>
<g id="surface1">
<g clip-path="url(#clip1)" clip-rule="nonzero">
<path style=" stroke:none;fill-rule:evenodd;fill:rgb(19.60907%,87.838745%,76.858521%);fill-opacity:1;" d="M 499.988281 335.230469 C 481.941406 353.257812 457.011719 364.414062 429.46875 364.414062 C 401.933594 364.414062 377.003906 353.257812 358.949219 335.230469 C 340.910156 317.199219 329.742188 292.28125 329.742188 264.769531 C 329.742188 237.25 340.910156 212.34375 358.949219 194.3125 C 377.003906 176.277344 401.933594 165.128906 429.46875 165.128906 C 457.011719 165.128906 481.941406 176.277344 499.988281 194.3125 C 518.039062 212.34375 529.203125 237.25 529.203125 264.769531 C 529.203125 292.28125 518.039062 317.199219 499.988281 335.230469 Z M 232.015625 437.8125 L 429.46875 769.007812 L 626.429688 438.625 C 626.65625 438.175781 626.914062 437.734375 627.195312 437.308594 L 627.21875 437.316406 C 654.375 396.40625 666.957031 350.824219 666.957031 306.042969 C 666.957031 266.835938 657.347656 228.3125 639.46875 194.132812 C 621.605469 159.988281 595.464844 130.125 562.390625 108.195312 C 525.996094 84.074219 481.105469 69.574219 429.46875 69.574219 C 377.839844 69.574219 332.949219 84.074219 296.554688 108.195312 C 263.472656 130.125 237.332031 159.988281 219.46875 194.132812 C 201.589844 228.3125 191.980469 266.835938 191.980469 306.042969 C 191.980469 350.597656 204.441406 395.957031 231.316406 436.707031 C 231.582031 437.050781 231.824219 437.410156 232.050781 437.789062 L 232.015625 437.8125 "/>
</g>
<g clip-path="url(#clip2)" clip-rule="nonzero">
<path style=" stroke:none;fill-rule:evenodd;fill:rgb(10.978699%,0.389099%,0%);fill-opacity:1;" d="M 371.410156 773.609375 L 164.566406 426.65625 L 164.277344 426.214844 L 164.261719 426.222656 L 164.132812 425.996094 C 134.566406 381.167969 120.859375 331.304688 120.859375 282.355469 C 120.859375 239.445312 131.4375 197.152344 151.117188 159.53125 C 170.820312 121.882812 199.625 88.957031 236.078125 64.804688 C 276.214844 38.191406 325.546875 22.191406 382.054688 22.191406 C 438.5625 22.191406 487.890625 38.191406 528.03125 64.804688 C 564.480469 88.964844 593.285156 121.882812 612.980469 159.53125 C 632.667969 197.152344 643.25 239.445312 643.25 282.355469 C 643.25 331.542969 629.414062 381.660156 599.539062 426.65625 L 599.515625 426.695312 L 599.539062 426.710938 C 599.46875 426.808594 599.394531 426.914062 599.332031 427.011719 L 392.207031 774.429688 L 392.238281 774.453125 C 388.886719 780.066406 381.609375 781.914062 375.984375 778.566406 C 373.941406 777.34375 372.390625 775.601562 371.410156 773.609375 Z M 184.601562 414.117188 L 382.054688 745.320312 L 579.015625 414.9375 C 579.238281 414.488281 579.496094 414.046875 579.777344 413.613281 L 579.804688 413.628906 C 606.960938 372.71875 619.539062 327.132812 619.539062 282.355469 C 619.539062 243.148438 609.933594 204.625 592.054688 170.445312 C 574.191406 136.300781 548.046875 106.4375 514.964844 84.507812 C 478.574219 60.386719 433.691406 45.886719 382.054688 45.886719 C 330.425781 45.886719 285.535156 60.386719 249.132812 84.507812 C 216.058594 106.4375 189.914062 136.300781 172.050781 170.445312 C 154.171875 204.625 144.566406 243.148438 144.566406 282.355469 C 144.566406 326.910156 157.027344 372.269531 183.902344 413.015625 C 184.167969 413.363281 184.410156 413.722656 184.632812 414.101562 L 184.601562 414.117188 "/>
</g>
<path style=" stroke:none;fill-rule:evenodd;fill:rgb(10.978699%,0.389099%,0%);fill-opacity:1;" d="M 382.054688 141.433594 C 409.597656 141.433594 434.527344 152.589844 452.574219 170.621094 C 470.621094 188.65625 481.78125 213.5625 481.78125 241.082031 C 481.78125 268.59375 470.621094 293.511719 452.574219 311.542969 C 434.527344 329.570312 409.597656 340.726562 382.054688 340.726562 C 354.511719 340.726562 329.582031 329.570312 311.53125 311.542969 C 293.484375 293.511719 282.328125 268.59375 282.328125 241.082031 C 282.328125 213.5625 293.484375 188.65625 311.53125 170.621094 C 329.582031 152.589844 354.511719 141.433594 382.054688 141.433594 Z M 435.8125 187.371094 C 422.058594 173.628906 403.042969 165.128906 382.054688 165.128906 C 361.0625 165.128906 342.058594 173.628906 328.304688 187.371094 C 314.539062 201.113281 306.035156 220.101562 306.035156 241.082031 C 306.035156 262.054688 314.539062 281.042969 328.304688 294.789062 C 342.058594 308.53125 361.0625 317.039062 382.054688 317.039062 C 403.042969 317.039062 422.058594 308.53125 435.8125 294.789062 C 449.566406 281.042969 458.074219 262.054688 458.074219 241.082031 C 458.074219 220.101562 449.566406 201.113281 435.8125 187.371094 "/>
</g>
</svg>
