<?xml version="1.0" encoding="UTF-8"?>
<svg xmlns="http://www.w3.org/2000/svg" xmlns:xlink="http://www.w3.org/1999/xlink" width="375pt" height="374.999991pt" viewBox="0 0 375 374.999991" version="1.2">
<g id="surface1">
<path style=" stroke:none;fill-rule:nonzero;fill:rgb(0%,0%,0%);fill-opacity:1;" d="M 187.5 0 C 84.140625 0 0 84.140625 0 187.5 C 0 251.71875 32.34375 308.4375 82.03125 342.1875 C 112.03125 362.8125 148.359375 375 187.5 375 C 226.640625 375 262.96875 362.8125 292.96875 342.1875 C 342.65625 308.4375 375 251.71875 375 187.5 C 375 84.140625 290.859375 0 187.5 0 Z M 292.96875 312.609375 L 292.96875 269.53125 C 292.96875 236.71875 246.5625 210.9375 187.5 210.9375 C 128.4375 210.9375 82.03125 236.71875 82.03125 269.53125 L 82.03125 312.632812 C 45.164062 281.695312 23.4375 236.109375 23.4375 187.5 C 23.4375 97.03125 97.03125 23.4375 187.5 23.4375 C 277.96875 23.4375 351.5625 97.03125 351.5625 187.5 C 351.5625 236.085938 329.882812 281.625 292.96875 312.609375 Z M 292.96875 312.609375 "/>
<path style=" stroke:none;fill-rule:nonzero;fill:rgb(0%,0%,0%);fill-opacity:1;" d="M 246.09375 128.90625 C 246.09375 130.824219 246 132.738281 245.8125 134.648438 C 245.625 136.558594 245.34375 138.457031 244.96875 140.335938 C 244.59375 142.21875 244.128906 144.078125 243.570312 145.914062 C 243.011719 147.75 242.367188 149.554688 241.632812 151.328125 C 240.898438 153.101562 240.078125 154.835938 239.175781 156.527344 C 238.269531 158.21875 237.285156 159.863281 236.21875 161.460938 C 235.152344 163.054688 234.011719 164.59375 232.792969 166.078125 C 231.578125 167.5625 230.289062 168.980469 228.933594 170.339844 C 227.574219 171.695312 226.15625 172.980469 224.671875 174.199219 C 223.1875 175.417969 221.648438 176.558594 220.054688 177.625 C 218.457031 178.691406 216.8125 179.675781 215.121094 180.582031 C 213.429688 181.484375 211.695312 182.304688 209.921875 183.039062 C 208.148438 183.773438 206.34375 184.417969 204.507812 184.976562 C 202.671875 185.535156 200.8125 186 198.929688 186.375 C 197.050781 186.75 195.152344 187.03125 193.242188 187.21875 C 191.332031 187.40625 189.417969 187.5 187.5 187.5 C 185.582031 187.5 183.667969 187.40625 181.757812 187.21875 C 179.847656 187.03125 177.949219 186.75 176.070312 186.375 C 174.1875 186 172.328125 185.535156 170.492188 184.976562 C 168.65625 184.417969 166.851562 183.773438 165.078125 183.039062 C 163.304688 182.304688 161.570312 181.484375 159.878906 180.582031 C 158.1875 179.675781 156.542969 178.691406 154.945312 177.625 C 153.351562 176.558594 151.8125 175.417969 150.328125 174.199219 C 148.84375 172.980469 147.425781 171.695312 146.066406 170.339844 C 144.710938 168.980469 143.425781 167.5625 142.207031 166.078125 C 140.988281 164.59375 139.847656 163.054688 138.78125 161.460938 C 137.714844 159.863281 136.730469 158.21875 135.824219 156.527344 C 134.921875 154.835938 134.101562 153.101562 133.367188 151.328125 C 132.632812 149.554688 131.988281 147.75 131.429688 145.914062 C 130.871094 144.078125 130.40625 142.21875 130.03125 140.335938 C 129.65625 138.457031 129.375 136.558594 129.1875 134.648438 C 129 132.738281 128.90625 130.824219 128.90625 128.90625 C 128.90625 126.988281 129 125.074219 129.1875 123.164062 C 129.375 121.253906 129.65625 119.355469 130.03125 117.476562 C 130.40625 115.59375 130.871094 113.734375 131.429688 111.898438 C 131.988281 110.0625 132.632812 108.257812 133.367188 106.484375 C 134.101562 104.710938 134.921875 102.976562 135.824219 101.285156 C 136.730469 99.59375 137.714844 97.949219 138.78125 96.351562 C 139.847656 94.757812 140.988281 93.21875 142.207031 91.734375 C 143.425781 90.25 144.710938 88.832031 146.066406 87.472656 C 147.425781 86.117188 148.84375 84.828125 150.328125 83.613281 C 151.8125 82.394531 153.351562 81.253906 154.945312 80.1875 C 156.542969 79.121094 158.1875 78.136719 159.878906 77.230469 C 161.570312 76.328125 163.304688 75.507812 165.078125 74.773438 C 166.851562 74.039062 168.65625 73.390625 170.492188 72.835938 C 172.328125 72.277344 174.1875 71.8125 176.070312 71.4375 C 177.949219 71.0625 179.847656 70.78125 181.757812 70.59375 C 183.667969 70.40625 185.582031 70.3125 187.5 70.3125 C 189.417969 70.3125 191.332031 70.40625 193.242188 70.59375 C 195.152344 70.78125 197.050781 71.0625 198.929688 71.4375 C 200.8125 71.8125 202.671875 72.277344 204.507812 72.835938 C 206.34375 73.394531 208.148438 74.039062 209.921875 74.773438 C 211.695312 75.507812 213.429688 76.328125 215.121094 77.230469 C 216.8125 78.136719 218.457031 79.121094 220.054688 80.1875 C 221.648438 81.253906 223.1875 82.394531 224.671875 83.613281 C 226.15625 84.828125 227.574219 86.117188 228.933594 87.472656 C 230.289062 88.832031 231.578125 90.25 232.792969 91.734375 C 234.011719 93.21875 235.152344 94.757812 236.21875 96.351562 C 237.285156 97.949219 238.269531 99.59375 239.175781 101.285156 C 240.078125 102.976562 240.898438 104.710938 241.632812 106.484375 C 242.367188 108.257812 243.011719 110.0625 243.570312 111.898438 C 244.128906 113.734375 244.59375 115.59375 244.96875 117.476562 C 245.34375 119.355469 245.625 121.253906 245.8125 123.164062 C 246 125.074219 246.09375 126.988281 246.09375 128.90625 Z M 246.09375 128.90625 "/>
</g>
</svg>
