<?xml version="1.0" encoding="UTF-8"?>
<svg xmlns="http://www.w3.org/2000/svg" xmlns:xlink="http://www.w3.org/1999/xlink" width="375pt" height="374.999991pt" viewBox="0 0 375 374.999991" version="1.2">
<defs>
<clipPath id="clip1">
  <path d="M 8 4.21875 L 375 4.21875 L 375 370.96875 L 8 370.96875 Z M 8 4.21875 "/>
</clipPath>
</defs>
<g id="surface1">
<g clip-path="url(#clip1)" clip-rule="nonzero">
<path style=" stroke:none;fill-rule:nonzero;fill:rgb(6.269836%,5.879211%,5.099487%);fill-opacity:1;" d="M 190.980469 15.628906 C 285.660156 15.464844 362.546875 92.203125 362.710938 186.980469 C 362.773438 235.113281 342.675781 281.074219 307.253906 313.609375 C 310.238281 299.4375 310.5 284.777344 308 270.476562 C 305.984375 251.234375 297.902344 233.101562 284.882812 218.765625 C 278.746094 212.6875 271.277344 208.203125 263.03125 205.636719 C 255.238281 203.230469 246.730469 205.148438 240.753906 210.707031 C 212.800781 236.609375 169.679688 236.609375 141.726562 210.707031 C 135.75 205.148438 127.242188 203.230469 119.453125 205.636719 C 111.238281 208.203125 103.738281 212.6875 97.632812 218.765625 C 84.578125 233.101562 76.496094 251.203125 74.449219 270.476562 C 71.980469 284.777344 72.273438 299.4375 75.230469 313.609375 C 5.515625 249.480469 0.9375 140.921875 65 71.109375 C 97.40625 35.8125 143.089844 15.691406 190.980469 15.628906 Z M 185.914062 4.285156 C 87.015625 7.175781 8.375 88.238281 8.375 187.238281 C 8.050781 288.355469 89.644531 370.585938 190.625 370.910156 C 291.632812 371.234375 373.78125 289.554688 374.105469 188.441406 C 374.105469 188.050781 374.105469 187.660156 374.105469 187.238281 C 374.105469 86.15625 292.25 4.1875 191.242188 4.1875 C 189.453125 4.1875 187.667969 4.21875 185.914062 4.285156 "/>
</g>
<path style=" stroke:none;fill-rule:nonzero;fill:rgb(6.269836%,5.879211%,5.099487%);fill-opacity:1;" d="M 252.703125 157.175781 C 252.703125 123.210938 225.203125 95.648438 191.242188 95.648438 C 157.277344 95.648438 129.777344 123.210938 129.777344 157.175781 C 129.777344 191.171875 157.277344 218.703125 191.242188 218.703125 C 225.203125 218.703125 252.703125 191.171875 252.703125 157.175781 "/>
</g>
</svg>
